# xmcd
#
# Track frame offsets:
#	150
#	10683
#	22776
#	33881
#	44939
#	56671
#	66177
#	76624
#	85770
#	95982
#	104838
#	116170
#	127690
#	137714
#	147753
#	159665
#	173113
#	183654
#	193341
#	203177
#	213702
#	226265
#	235936
#	246900
#	258366
#	268570
#	280467
#	289981
#	301501
#	311783
#	324322
#	334448
#
# Disc length: 4640 seconds
# Revision: 0
# Processed by: cddbd v1.5.2PL0 Copyright (c) Steve Scherf et al.
# Submitted via: dBpowerAMP V12.0
#
DISCID=de121e20
DTITLE=Wanda Jackson - Right Or Wrong, Disc 3
DYEAR=1961
DGENRE=Pop\Rock*
TTITLE0=Lonely Weekends
TTITLE1=Tweedle Dee
TTITLE2=Riot In Cell Block #9
TTITLE3=Little Charm Bracelet
TTITLE4=Right Or Wrong
TTITLE5=Funnel Of Love
TTITLE6=Tongue Tied
TTITLE7=There's A Party Goin' On
TTITLE8=Lost Weekend
TTITLE9=Man We Had A Party
TTITLE10=Why I'm Walkin'
TTITLE11=I May Never Get To Heaven
TTITLE12=Stupid Cupid
TTITLE13=Brown Eyed Handsome Man
TTITLE14=I Cried Again
TTITLE15=The Last Letter
TTITLE16=Who Shot Sam
TTITLE17=Slippin' And Slidin'
TTITLE18=My Baby Left Me
TTITLE19=So Soon
TTITLE20=The Window Up Above
TTITLE21=Sticks And Stones
TTITLE22=I Don't Wanta Go
TTITLE23=In The Middle Of A Heartache
TTITLE24=A Little Bitty Tear
TTITLE25=I'd Be Ashamed
TTITLE26=Seven Lonely Days
TTITLE27=Don't Ask Me Why
TTITLE28=I Need You Now
TTITLE29=This Should Go On Forever
TTITLE30=Is It Wrong
TTITLE31=We Could
EXTD=
EXTT0=
EXTT1=
EXTT2=
EXTT3=
EXTT4=
EXTT5=
EXTT6=
EXTT7=
EXTT8=
EXTT9=
EXTT10=
EXTT11=
EXTT12=
EXTT13=
EXTT14=
EXTT15=
EXTT16=
EXTT17=
EXTT18=
EXTT19=
EXTT20=
EXTT21=
EXTT22=
EXTT23=
EXTT24=
EXTT25=
EXTT26=
EXTT27=
EXTT28=
EXTT29=
EXTT30=
EXTT31=
PLAYORDER=
